  0
SECTION
  2
BLOCKS
  0
ENDSEC
  0
SECTION
  2
ENTITIES
  0
LINE
  8
0
 10
-339.5
 11
-267.639
 20
-235
 21
-203.042
  0
LINE
  8
0
 10
-267.639
 11
-260
 20
-203.042
 21
-199.641
  0
LINE
  8
0
 10
-260
 11
-253.235
 20
-199.641
 21
-194.726
  0
LINE
  8
0
 10
-253.235
 11
-247.639
 20
-194.726
 21
-188.511
  0
LINE
  8
0
 10
-247.639
 11
-243.458
 20
-188.511
 21
-181.269
  0
LINE
  8
0
 10
-243.458
 11
-240.874
 20
-181.269
 21
-173.316
  0
LINE
  8
0
 10
-240.874
 11
-240
 20
-173.316
 21
-165
  0
LINE
  8
0
 10
-240
 11
-240
 20
-165
 21
165
  0
LINE
  8
0
 10
-240
 11
-240.874
 20
165
 21
173.316
  0
LINE
  8
0
 10
-240.874
 11
-243.458
 20
173.316
 21
181.269
  0
LINE
  8
0
 10
-243.458
 11
-247.639
 20
181.269
 21
188.511
  0
LINE
  8
0
 10
-247.639
 11
-253.235
 20
188.511
 21
194.726
  0
LINE
  8
0
 10
-253.235
 11
-260
 20
194.726
 21
199.641
  0
LINE
  8
0
 10
-260
 11
-267.639
 20
199.641
 21
203.042
  0
LINE
  8
0
 10
-267.639
 11
-339.5
 20
203.042
 21
235
  0
LINE
  8
0
 10
-339.5
 11
-300
 20
235
 21
235
  0
LINE
  8
0
 10
-300
 11
-300
 20
235
 21
240
  0
LINE
  8
0
 10
-300
 11
-260
 20
240
 21
240
  0
LINE
  8
0
 10
-260
 11
-260
 20
240
 21
235
  0
LINE
  8
0
 10
-260
 11
-220
 20
235
 21
235
  0
LINE
  8
0
 10
-220
 11
-220
 20
235
 21
220
  0
LINE
  8
0
 10
-220
 11
-224.5
 20
220
 21
220
  0
LINE
  8
0
 10
-224.5
 11
-224.5
 20
220
 21
180
  0
LINE
  8
0
 10
-224.5
 11
-220
 20
180
 21
180
  0
LINE
  8
0
 10
-220
 11
-220
 20
180
 21
120
  0
LINE
  8
0
 10
-220
 11
-224.5
 20
120
 21
120
  0
LINE
  8
0
 10
-224.5
 11
-224.5
 20
120
 21
80
  0
LINE
  8
0
 10
-224.5
 11
-220
 20
80
 21
80
  0
LINE
  8
0
 10
-220
 11
-220
 20
80
 21
20
  0
LINE
  8
0
 10
-220
 11
-224.5
 20
20
 21
20
  0
LINE
  8
0
 10
-224.5
 11
-224.5
 20
20
 21
-20
  0
LINE
  8
0
 10
-224.5
 11
-220
 20
-20
 21
-20
  0
LINE
  8
0
 10
-220
 11
-220
 20
-20
 21
-80
  0
LINE
  8
0
 10
-220
 11
-224.5
 20
-80
 21
-80
  0
LINE
  8
0
 10
-224.5
 11
-224.5
 20
-80
 21
-120
  0
LINE
  8
0
 10
-224.5
 11
-220
 20
-120
 21
-120
  0
LINE
  8
0
 10
-220
 11
-220
 20
-120
 21
-180
  0
LINE
  8
0
 10
-220
 11
-224.5
 20
-180
 21
-180
  0
LINE
  8
0
 10
-224.5
 11
-224.5
 20
-180
 21
-220
  0
LINE
  8
0
 10
-224.5
 11
-220
 20
-220
 21
-220
  0
LINE
  8
0
 10
-220
 11
-220
 20
-220
 21
-235
  0
LINE
  8
0
 10
-220
 11
-260
 20
-235
 21
-235
  0
LINE
  8
0
 10
-260
 11
-260
 20
-235
 21
-240
  0
LINE
  8
0
 10
-260
 11
-300
 20
-240
 21
-240
  0
LINE
  8
0
 10
-300
 11
-300
 20
-240
 21
-235
  0
LINE
  8
0
 10
-300
 11
-339.5
 20
-235
 21
-235
  0
LINE
  8
0
 10
-200
 11
-200
 20
-380
 21
-340
  0
LINE
  8
0
 10
-200
 11
-195
 20
-340
 21
-340
  0
LINE
  8
0
 10
-195
 11
-195
 20
-340
 21
-300
  0
LINE
  8
0
 10
-195
 11
-200
 20
-300
 21
-300
  0
LINE
  8
0
 10
-200
 11
-200
 20
-300
 21
-260
  0
LINE
  8
0
 10
-200
 11
-120
 20
-260
 21
-260
  0
LINE
  8
0
 10
-120
 11
-120
 20
-260
 21
-264.5
  0
LINE
  8
0
 10
-120
 11
-80
 20
-264.5
 21
-264.5
  0
LINE
  8
0
 10
-80
 11
-80
 20
-264.5
 21
-260
  0
LINE
  8
0
 10
-80
 11
-20
 20
-260
 21
-260
  0
LINE
  8
0
 10
-20
 11
-20
 20
-260
 21
-264.5
  0
LINE
  8
0
 10
-20
 11
20
 20
-264.5
 21
-264.5
  0
LINE
  8
0
 10
20
 11
20
 20
-264.5
 21
-260
  0
LINE
  8
0
 10
20
 11
80
 20
-260
 21
-260
  0
LINE
  8
0
 10
80
 11
80
 20
-260
 21
-264.5
  0
LINE
  8
0
 10
80
 11
120
 20
-264.5
 21
-264.5
  0
LINE
  8
0
 10
120
 11
120
 20
-264.5
 21
-260
  0
LINE
  8
0
 10
120
 11
200
 20
-260
 21
-260
  0
LINE
  8
0
 10
200
 11
200
 20
-260
 21
-300
  0
LINE
  8
0
 10
200
 11
195
 20
-300
 21
-300
  0
LINE
  8
0
 10
195
 11
195
 20
-300
 21
-340
  0
LINE
  8
0
 10
195
 11
200
 20
-340
 21
-340
  0
LINE
  8
0
 10
200
 11
200
 20
-340
 21
-380
  0
LINE
  8
0
 10
200
 11
-200
 20
-380
 21
-380
  0
LINE
  8
0
 10
-200
 11
-200
 20
-220
 21
-180
  0
LINE
  8
0
 10
-200
 11
-195
 20
-180
 21
-180
  0
LINE
  8
0
 10
-195
 11
-195
 20
-180
 21
-120
  0
LINE
  8
0
 10
-195
 11
-200
 20
-120
 21
-120
  0
LINE
  8
0
 10
-200
 11
-200
 20
-120
 21
-80
  0
LINE
  8
0
 10
-200
 11
-195
 20
-80
 21
-80
  0
LINE
  8
0
 10
-195
 11
-195
 20
-80
 21
-20
  0
LINE
  8
0
 10
-195
 11
-200
 20
-20
 21
-20
  0
LINE
  8
0
 10
-200
 11
-200
 20
-20
 21
20
  0
LINE
  8
0
 10
-200
 11
-195
 20
20
 21
20
  0
LINE
  8
0
 10
-195
 11
-195
 20
20
 21
80
  0
LINE
  8
0
 10
-195
 11
-200
 20
80
 21
80
  0
LINE
  8
0
 10
-200
 11
-200
 20
80
 21
120
  0
LINE
  8
0
 10
-200
 11
-195
 20
120
 21
120
  0
LINE
  8
0
 10
-195
 11
-195
 20
120
 21
180
  0
LINE
  8
0
 10
-195
 11
-200
 20
180
 21
180
  0
LINE
  8
0
 10
-200
 11
-200
 20
180
 21
220
  0
LINE
  8
0
 10
-200
 11
-195
 20
220
 21
220
  0
LINE
  8
0
 10
-195
 11
-195
 20
220
 21
235
  0
LINE
  8
0
 10
-195
 11
-120
 20
235
 21
235
  0
LINE
  8
0
 10
-120
 11
-120
 20
235
 21
240
  0
LINE
  8
0
 10
-120
 11
-80
 20
240
 21
240
  0
LINE
  8
0
 10
-80
 11
-80
 20
240
 21
235
  0
LINE
  8
0
 10
-80
 11
-20
 20
235
 21
235
  0
LINE
  8
0
 10
-20
 11
-20
 20
235
 21
240
  0
LINE
  8
0
 10
-20
 11
20
 20
240
 21
240
  0
LINE
  8
0
 10
20
 11
20
 20
240
 21
235
  0
LINE
  8
0
 10
20
 11
80
 20
235
 21
235
  0
LINE
  8
0
 10
80
 11
80
 20
235
 21
240
  0
LINE
  8
0
 10
80
 11
120
 20
240
 21
240
  0
LINE
  8
0
 10
120
 11
120
 20
240
 21
235
  0
LINE
  8
0
 10
120
 11
195
 20
235
 21
235
  0
LINE
  8
0
 10
195
 11
195
 20
235
 21
220
  0
LINE
  8
0
 10
195
 11
200
 20
220
 21
220
  0
LINE
  8
0
 10
200
 11
200
 20
220
 21
180
  0
LINE
  8
0
 10
200
 11
195
 20
180
 21
180
  0
LINE
  8
0
 10
195
 11
195
 20
180
 21
120
  0
LINE
  8
0
 10
195
 11
200
 20
120
 21
120
  0
LINE
  8
0
 10
200
 11
200
 20
120
 21
80
  0
LINE
  8
0
 10
200
 11
195
 20
80
 21
80
  0
LINE
  8
0
 10
195
 11
195
 20
80
 21
20
  0
LINE
  8
0
 10
195
 11
200
 20
20
 21
20
  0
LINE
  8
0
 10
200
 11
200
 20
20
 21
-20
  0
LINE
  8
0
 10
200
 11
195
 20
-20
 21
-20
  0
LINE
  8
0
 10
195
 11
195
 20
-20
 21
-80
  0
LINE
  8
0
 10
195
 11
200
 20
-80
 21
-80
  0
LINE
  8
0
 10
200
 11
200
 20
-80
 21
-120
  0
LINE
  8
0
 10
200
 11
195
 20
-120
 21
-120
  0
LINE
  8
0
 10
195
 11
195
 20
-120
 21
-180
  0
LINE
  8
0
 10
195
 11
200
 20
-180
 21
-180
  0
LINE
  8
0
 10
200
 11
200
 20
-180
 21
-220
  0
LINE
  8
0
 10
200
 11
195
 20
-220
 21
-220
  0
LINE
  8
0
 10
195
 11
195
 20
-220
 21
-235
  0
LINE
  8
0
 10
195
 11
120
 20
-235
 21
-235
  0
LINE
  8
0
 10
120
 11
120
 20
-235
 21
-240
  0
LINE
  8
0
 10
120
 11
80
 20
-240
 21
-240
  0
LINE
  8
0
 10
80
 11
80
 20
-240
 21
-235
  0
LINE
  8
0
 10
80
 11
20
 20
-235
 21
-235
  0
LINE
  8
0
 10
20
 11
20
 20
-235
 21
-240
  0
LINE
  8
0
 10
20
 11
-20
 20
-240
 21
-240
  0
LINE
  8
0
 10
-20
 11
-20
 20
-240
 21
-235
  0
LINE
  8
0
 10
-20
 11
-80
 20
-235
 21
-235
  0
LINE
  8
0
 10
-80
 11
-80
 20
-235
 21
-240
  0
LINE
  8
0
 10
-80
 11
-120
 20
-240
 21
-240
  0
LINE
  8
0
 10
-120
 11
-120
 20
-240
 21
-235
  0
LINE
  8
0
 10
-120
 11
-195
 20
-235
 21
-235
  0
LINE
  8
0
 10
-195
 11
-195
 20
-235
 21
-220
  0
LINE
  8
0
 10
-195
 11
-200
 20
-220
 21
-220
  0
LINE
  8
0
 10
-200
 11
-200
 20
260
 21
300
  0
LINE
  8
0
 10
-200
 11
-195
 20
300
 21
300
  0
LINE
  8
0
 10
-195
 11
-195
 20
300
 21
340
  0
LINE
  8
0
 10
-195
 11
-200
 20
340
 21
340
  0
LINE
  8
0
 10
-200
 11
-200
 20
340
 21
380
  0
LINE
  8
0
 10
-200
 11
200
 20
380
 21
380
  0
LINE
  8
0
 10
200
 11
200
 20
380
 21
340
  0
LINE
  8
0
 10
200
 11
195
 20
340
 21
340
  0
LINE
  8
0
 10
195
 11
195
 20
340
 21
300
  0
LINE
  8
0
 10
195
 11
200
 20
300
 21
300
  0
LINE
  8
0
 10
200
 11
200
 20
300
 21
260
  0
LINE
  8
0
 10
200
 11
120
 20
260
 21
260
  0
LINE
  8
0
 10
120
 11
120
 20
260
 21
264.5
  0
LINE
  8
0
 10
120
 11
80
 20
264.5
 21
264.5
  0
LINE
  8
0
 10
80
 11
80
 20
264.5
 21
260
  0
LINE
  8
0
 10
80
 11
20
 20
260
 21
260
  0
LINE
  8
0
 10
20
 11
20
 20
260
 21
264.5
  0
LINE
  8
0
 10
20
 11
-20
 20
264.5
 21
264.5
  0
LINE
  8
0
 10
-20
 11
-20
 20
264.5
 21
260
  0
LINE
  8
0
 10
-20
 11
-80
 20
260
 21
260
  0
LINE
  8
0
 10
-80
 11
-80
 20
260
 21
264.5
  0
LINE
  8
0
 10
-80
 11
-120
 20
264.5
 21
264.5
  0
LINE
  8
0
 10
-120
 11
-120
 20
264.5
 21
260
  0
LINE
  8
0
 10
-120
 11
-200
 20
260
 21
260
  0
LINE
  8
0
 10
-153.884
 11
-153.884
 20
-289.457
 21
-287.543
  0
LINE
  8
0
 10
-153.884
 11
-152.994
 20
-287.543
 21
-285.848
  0
LINE
  8
0
 10
-152.994
 11
-151.418
 20
-285.848
 21
-284.76
  0
LINE
  8
0
 10
-151.418
 11
-149.518
 20
-284.76
 21
-284.529
  0
LINE
  8
0
 10
-149.518
 11
-147.728
 20
-284.529
 21
-285.208
  0
LINE
  8
0
 10
-147.728
 11
-146.458
 20
-285.208
 21
-286.641
  0
LINE
  8
0
 10
-146.458
 11
-146
 20
-286.641
 21
-288.5
  0
LINE
  8
0
 10
-146
 11
-146.458
 20
-288.5
 21
-290.359
  0
LINE
  8
0
 10
-146.458
 11
-147.728
 20
-290.359
 21
-291.792
  0
LINE
  8
0
 10
-147.728
 11
-149.518
 20
-291.792
 21
-292.471
  0
LINE
  8
0
 10
-149.518
 11
-151.418
 20
-292.471
 21
-292.24
  0
LINE
  8
0
 10
-151.418
 11
-152.994
 20
-292.24
 21
-291.152
  0
LINE
  8
0
 10
-152.994
 11
-153.884
 20
-291.152
 21
-289.457
  0
LINE
  8
0
 10
-153.884
 11
-153.884
 20
350.543
 21
352.457
  0
LINE
  8
0
 10
-153.884
 11
-152.994
 20
352.457
 21
354.152
  0
LINE
  8
0
 10
-152.994
 11
-151.418
 20
354.152
 21
355.24
  0
LINE
  8
0
 10
-151.418
 11
-149.518
 20
355.24
 21
355.471
  0
LINE
  8
0
 10
-149.518
 11
-147.728
 20
355.471
 21
354.792
  0
LINE
  8
0
 10
-147.728
 11
-146.458
 20
354.792
 21
353.359
  0
LINE
  8
0
 10
-146.458
 11
-146
 20
353.359
 21
351.5
  0
LINE
  8
0
 10
-146
 11
-146.458
 20
351.5
 21
349.641
  0
LINE
  8
0
 10
-146.458
 11
-147.728
 20
349.641
 21
348.208
  0
LINE
  8
0
 10
-147.728
 11
-149.518
 20
348.208
 21
347.529
  0
LINE
  8
0
 10
-149.518
 11
-151.418
 20
347.529
 21
347.76
  0
LINE
  8
0
 10
-151.418
 11
-152.994
 20
347.76
 21
348.848
  0
LINE
  8
0
 10
-152.994
 11
-153.884
 20
348.848
 21
350.543
  0
LINE
  8
0
 10
-103.884
 11
-103.884
 20
-289.457
 21
-287.543
  0
LINE
  8
0
 10
-103.884
 11
-102.994
 20
-287.543
 21
-285.848
  0
LINE
  8
0
 10
-102.994
 11
-101.418
 20
-285.848
 21
-284.76
  0
LINE
  8
0
 10
-101.418
 11
-99.518
 20
-284.76
 21
-284.529
  0
LINE
  8
0
 10
-99.518
 11
-97.728
 20
-284.529
 21
-285.208
  0
LINE
  8
0
 10
-97.728
 11
-96.458
 20
-285.208
 21
-286.641
  0
LINE
  8
0
 10
-96.458
 11
-96
 20
-286.641
 21
-288.5
  0
LINE
  8
0
 10
-96
 11
-96.458
 20
-288.5
 21
-290.359
  0
LINE
  8
0
 10
-96.458
 11
-97.728
 20
-290.359
 21
-291.792
  0
LINE
  8
0
 10
-97.728
 11
-99.518
 20
-291.792
 21
-292.471
  0
LINE
  8
0
 10
-99.518
 11
-101.418
 20
-292.471
 21
-292.24
  0
LINE
  8
0
 10
-101.418
 11
-102.994
 20
-292.24
 21
-291.152
  0
LINE
  8
0
 10
-102.994
 11
-103.884
 20
-291.152
 21
-289.457
  0
LINE
  8
0
 10
-103.884
 11
-103.884
 20
350.543
 21
352.457
  0
LINE
  8
0
 10
-103.884
 11
-102.994
 20
352.457
 21
354.152
  0
LINE
  8
0
 10
-102.994
 11
-101.418
 20
354.152
 21
355.24
  0
LINE
  8
0
 10
-101.418
 11
-99.518
 20
355.24
 21
355.471
  0
LINE
  8
0
 10
-99.518
 11
-97.728
 20
355.471
 21
354.792
  0
LINE
  8
0
 10
-97.728
 11
-96.458
 20
354.792
 21
353.359
  0
LINE
  8
0
 10
-96.458
 11
-96
 20
353.359
 21
351.5
  0
LINE
  8
0
 10
-96
 11
-96.458
 20
351.5
 21
349.641
  0
LINE
  8
0
 10
-96.458
 11
-97.728
 20
349.641
 21
348.208
  0
LINE
  8
0
 10
-97.728
 11
-99.518
 20
348.208
 21
347.529
  0
LINE
  8
0
 10
-99.518
 11
-101.418
 20
347.529
 21
347.76
  0
LINE
  8
0
 10
-101.418
 11
-102.994
 20
347.76
 21
348.848
  0
LINE
  8
0
 10
-102.994
 11
-103.884
 20
348.848
 21
350.543
  0
LINE
  8
0
 10
-15
 11
-14.672
 20
-288.5
 21
-285.381
  0
LINE
  8
0
 10
-14.672
 11
-13.703
 20
-285.381
 21
-282.399
  0
LINE
  8
0
 10
-13.703
 11
-12.135
 20
-282.399
 21
-279.683
  0
LINE
  8
0
 10
-12.135
 11
-10.037
 20
-279.683
 21
-277.353
  0
LINE
  8
0
 10
-10.037
 11
-7.5
 20
-277.353
 21
-275.51
  0
LINE
  8
0
 10
-7.5
 11
-4.635
 20
-275.51
 21
-274.234
  0
LINE
  8
0
 10
-4.635
 11
-1.568
 20
-274.234
 21
-273.582
  0
LINE
  8
0
 10
-1.568
 11
1.568
 20
-273.582
 21
-273.582
  0
LINE
  8
0
 10
1.568
 11
4.635
 20
-273.582
 21
-274.234
  0
LINE
  8
0
 10
4.635
 11
7.5
 20
-274.234
 21
-275.51
  0
LINE
  8
0
 10
7.5
 11
10.037
 20
-275.51
 21
-277.353
  0
LINE
  8
0
 10
10.037
 11
12.135
 20
-277.353
 21
-279.683
  0
LINE
  8
0
 10
12.135
 11
13.703
 20
-279.683
 21
-282.399
  0
LINE
  8
0
 10
13.703
 11
14.672
 20
-282.399
 21
-285.381
  0
LINE
  8
0
 10
14.672
 11
15
 20
-285.381
 21
-288.5
  0
LINE
  8
0
 10
15
 11
14.672
 20
-288.5
 21
-291.619
  0
LINE
  8
0
 10
14.672
 11
13.703
 20
-291.619
 21
-294.601
  0
LINE
  8
0
 10
13.703
 11
12.135
 20
-294.601
 21
-297.317
  0
LINE
  8
0
 10
12.135
 11
10.037
 20
-297.317
 21
-299.647
  0
LINE
  8
0
 10
10.037
 11
7.5
 20
-299.647
 21
-301.49
  0
LINE
  8
0
 10
7.5
 11
4.635
 20
-301.49
 21
-302.766
  0
LINE
  8
0
 10
4.635
 11
1.568
 20
-302.766
 21
-303.418
  0
LINE
  8
0
 10
1.568
 11
-1.568
 20
-303.418
 21
-303.418
  0
LINE
  8
0
 10
-1.568
 11
-4.635
 20
-303.418
 21
-302.766
  0
LINE
  8
0
 10
-4.635
 11
-7.5
 20
-302.766
 21
-301.49
  0
LINE
  8
0
 10
-7.5
 11
-10.037
 20
-301.49
 21
-299.647
  0
LINE
  8
0
 10
-10.037
 11
-12.135
 20
-299.647
 21
-297.317
  0
LINE
  8
0
 10
-12.135
 11
-13.703
 20
-297.317
 21
-294.601
  0
LINE
  8
0
 10
-13.703
 11
-14.672
 20
-294.601
 21
-291.619
  0
LINE
  8
0
 10
-14.672
 11
-15
 20
-291.619
 21
-288.5
  0
LINE
  8
0
 10
-15
 11
-14.672
 20
351.5
 21
354.619
  0
LINE
  8
0
 10
-14.672
 11
-13.703
 20
354.619
 21
357.601
  0
LINE
  8
0
 10
-13.703
 11
-12.135
 20
357.601
 21
360.317
  0
LINE
  8
0
 10
-12.135
 11
-10.037
 20
360.317
 21
362.647
  0
LINE
  8
0
 10
-10.037
 11
-7.5
 20
362.647
 21
364.49
  0
LINE
  8
0
 10
-7.5
 11
-4.635
 20
364.49
 21
365.766
  0
LINE
  8
0
 10
-4.635
 11
-1.568
 20
365.766
 21
366.418
  0
LINE
  8
0
 10
-1.568
 11
1.568
 20
366.418
 21
366.418
  0
LINE
  8
0
 10
1.568
 11
4.635
 20
366.418
 21
365.766
  0
LINE
  8
0
 10
4.635
 11
7.5
 20
365.766
 21
364.49
  0
LINE
  8
0
 10
7.5
 11
10.037
 20
364.49
 21
362.647
  0
LINE
  8
0
 10
10.037
 11
12.135
 20
362.647
 21
360.317
  0
LINE
  8
0
 10
12.135
 11
13.703
 20
360.317
 21
357.601
  0
LINE
  8
0
 10
13.703
 11
14.672
 20
357.601
 21
354.619
  0
LINE
  8
0
 10
14.672
 11
15
 20
354.619
 21
351.5
  0
LINE
  8
0
 10
15
 11
14.672
 20
351.5
 21
348.381
  0
LINE
  8
0
 10
14.672
 11
13.703
 20
348.381
 21
345.399
  0
LINE
  8
0
 10
13.703
 11
12.135
 20
345.399
 21
342.683
  0
LINE
  8
0
 10
12.135
 11
10.037
 20
342.683
 21
340.353
  0
LINE
  8
0
 10
10.037
 11
7.5
 20
340.353
 21
338.51
  0
LINE
  8
0
 10
7.5
 11
4.635
 20
338.51
 21
337.234
  0
LINE
  8
0
 10
4.635
 11
1.568
 20
337.234
 21
336.582
  0
LINE
  8
0
 10
1.568
 11
-1.568
 20
336.582
 21
336.582
  0
LINE
  8
0
 10
-1.568
 11
-4.635
 20
336.582
 21
337.234
  0
LINE
  8
0
 10
-4.635
 11
-7.5
 20
337.234
 21
338.51
  0
LINE
  8
0
 10
-7.5
 11
-10.037
 20
338.51
 21
340.353
  0
LINE
  8
0
 10
-10.037
 11
-12.135
 20
340.353
 21
342.683
  0
LINE
  8
0
 10
-12.135
 11
-13.703
 20
342.683
 21
345.399
  0
LINE
  8
0
 10
-13.703
 11
-14.672
 20
345.399
 21
348.381
  0
LINE
  8
0
 10
-14.672
 11
-15
 20
348.381
 21
351.5
  0
LINE
  8
0
 10
96.116
 11
96.116
 20
-289.457
 21
-287.543
  0
LINE
  8
0
 10
96.116
 11
97.006
 20
-287.543
 21
-285.848
  0
LINE
  8
0
 10
97.006
 11
98.582
 20
-285.848
 21
-284.76
  0
LINE
  8
0
 10
98.582
 11
100.482
 20
-284.76
 21
-284.529
  0
LINE
  8
0
 10
100.482
 11
102.272
 20
-284.529
 21
-285.208
  0
LINE
  8
0
 10
102.272
 11
103.542
 20
-285.208
 21
-286.641
  0
LINE
  8
0
 10
103.542
 11
104
 20
-286.641
 21
-288.5
  0
LINE
  8
0
 10
104
 11
103.542
 20
-288.5
 21
-290.359
  0
LINE
  8
0
 10
103.542
 11
102.272
 20
-290.359
 21
-291.792
  0
LINE
  8
0
 10
102.272
 11
100.482
 20
-291.792
 21
-292.471
  0
LINE
  8
0
 10
100.482
 11
98.582
 20
-292.471
 21
-292.24
  0
LINE
  8
0
 10
98.582
 11
97.006
 20
-292.24
 21
-291.152
  0
LINE
  8
0
 10
97.006
 11
96.116
 20
-291.152
 21
-289.457
  0
LINE
  8
0
 10
96.116
 11
96.116
 20
350.543
 21
352.457
  0
LINE
  8
0
 10
96.116
 11
97.006
 20
352.457
 21
354.152
  0
LINE
  8
0
 10
97.006
 11
98.582
 20
354.152
 21
355.24
  0
LINE
  8
0
 10
98.582
 11
100.482
 20
355.24
 21
355.471
  0
LINE
  8
0
 10
100.482
 11
102.272
 20
355.471
 21
354.792
  0
LINE
  8
0
 10
102.272
 11
103.542
 20
354.792
 21
353.359
  0
LINE
  8
0
 10
103.542
 11
104
 20
353.359
 21
351.5
  0
LINE
  8
0
 10
104
 11
103.542
 20
351.5
 21
349.641
  0
LINE
  8
0
 10
103.542
 11
102.272
 20
349.641
 21
348.208
  0
LINE
  8
0
 10
102.272
 11
100.482
 20
348.208
 21
347.529
  0
LINE
  8
0
 10
100.482
 11
98.582
 20
347.529
 21
347.76
  0
LINE
  8
0
 10
98.582
 11
97.006
 20
347.76
 21
348.848
  0
LINE
  8
0
 10
97.006
 11
96.116
 20
348.848
 21
350.543
  0
LINE
  8
0
 10
146.116
 11
146.116
 20
-289.457
 21
-287.543
  0
LINE
  8
0
 10
146.116
 11
147.006
 20
-287.543
 21
-285.848
  0
LINE
  8
0
 10
147.006
 11
148.582
 20
-285.848
 21
-284.76
  0
LINE
  8
0
 10
148.582
 11
150.482
 20
-284.76
 21
-284.529
  0
LINE
  8
0
 10
150.482
 11
152.272
 20
-284.529
 21
-285.208
  0
LINE
  8
0
 10
152.272
 11
153.542
 20
-285.208
 21
-286.641
  0
LINE
  8
0
 10
153.542
 11
154
 20
-286.641
 21
-288.5
  0
LINE
  8
0
 10
154
 11
153.542
 20
-288.5
 21
-290.359
  0
LINE
  8
0
 10
153.542
 11
152.272
 20
-290.359
 21
-291.792
  0
LINE
  8
0
 10
152.272
 11
150.482
 20
-291.792
 21
-292.471
  0
LINE
  8
0
 10
150.482
 11
148.582
 20
-292.471
 21
-292.24
  0
LINE
  8
0
 10
148.582
 11
147.006
 20
-292.24
 21
-291.152
  0
LINE
  8
0
 10
147.006
 11
146.116
 20
-291.152
 21
-289.457
  0
LINE
  8
0
 10
146.116
 11
146.116
 20
350.543
 21
352.457
  0
LINE
  8
0
 10
146.116
 11
147.006
 20
352.457
 21
354.152
  0
LINE
  8
0
 10
147.006
 11
148.582
 20
354.152
 21
355.24
  0
LINE
  8
0
 10
148.582
 11
150.482
 20
355.24
 21
355.471
  0
LINE
  8
0
 10
150.482
 11
152.272
 20
355.471
 21
354.792
  0
LINE
  8
0
 10
152.272
 11
153.542
 20
354.792
 21
353.359
  0
LINE
  8
0
 10
153.542
 11
154
 20
353.359
 21
351.5
  0
LINE
  8
0
 10
154
 11
153.542
 20
351.5
 21
349.641
  0
LINE
  8
0
 10
153.542
 11
152.272
 20
349.641
 21
348.208
  0
LINE
  8
0
 10
152.272
 11
150.482
 20
348.208
 21
347.529
  0
LINE
  8
0
 10
150.482
 11
148.582
 20
347.529
 21
347.76
  0
LINE
  8
0
 10
148.582
 11
147.006
 20
347.76
 21
348.848
  0
LINE
  8
0
 10
147.006
 11
146.116
 20
348.848
 21
350.543
  0
LINE
  8
0
 10
220
 11
220
 20
-235
 21
-220
  0
LINE
  8
0
 10
220
 11
224.5
 20
-220
 21
-220
  0
LINE
  8
0
 10
224.5
 11
224.5
 20
-220
 21
-180
  0
LINE
  8
0
 10
224.5
 11
220
 20
-180
 21
-180
  0
LINE
  8
0
 10
220
 11
220
 20
-180
 21
-120
  0
LINE
  8
0
 10
220
 11
224.5
 20
-120
 21
-120
  0
LINE
  8
0
 10
224.5
 11
224.5
 20
-120
 21
-80
  0
LINE
  8
0
 10
224.5
 11
220
 20
-80
 21
-80
  0
LINE
  8
0
 10
220
 11
220
 20
-80
 21
-20
  0
LINE
  8
0
 10
220
 11
224.5
 20
-20
 21
-20
  0
LINE
  8
0
 10
224.5
 11
224.5
 20
-20
 21
20
  0
LINE
  8
0
 10
224.5
 11
220
 20
20
 21
20
  0
LINE
  8
0
 10
220
 11
220
 20
20
 21
80
  0
LINE
  8
0
 10
220
 11
224.5
 20
80
 21
80
  0
LINE
  8
0
 10
224.5
 11
224.5
 20
80
 21
120
  0
LINE
  8
0
 10
224.5
 11
220
 20
120
 21
120
  0
LINE
  8
0
 10
220
 11
220
 20
120
 21
180
  0
LINE
  8
0
 10
220
 11
224.5
 20
180
 21
180
  0
LINE
  8
0
 10
224.5
 11
224.5
 20
180
 21
220
  0
LINE
  8
0
 10
224.5
 11
220
 20
220
 21
220
  0
LINE
  8
0
 10
220
 11
220
 20
220
 21
235
  0
LINE
  8
0
 10
220
 11
260
 20
235
 21
235
  0
LINE
  8
0
 10
260
 11
260
 20
235
 21
240
  0
LINE
  8
0
 10
260
 11
300
 20
240
 21
240
  0
LINE
  8
0
 10
300
 11
300
 20
240
 21
235
  0
LINE
  8
0
 10
300
 11
339.5
 20
235
 21
235
  0
LINE
  8
0
 10
339.5
 11
267.639
 20
235
 21
203.042
  0
LINE
  8
0
 10
267.639
 11
260
 20
203.042
 21
199.641
  0
LINE
  8
0
 10
260
 11
253.235
 20
199.641
 21
194.726
  0
LINE
  8
0
 10
253.235
 11
247.639
 20
194.726
 21
188.511
  0
LINE
  8
0
 10
247.639
 11
243.458
 20
188.511
 21
181.269
  0
LINE
  8
0
 10
243.458
 11
240.874
 20
181.269
 21
173.316
  0
LINE
  8
0
 10
240.874
 11
240
 20
173.316
 21
165
  0
LINE
  8
0
 10
240
 11
240
 20
165
 21
-165
  0
LINE
  8
0
 10
240
 11
240.874
 20
-165
 21
-173.316
  0
LINE
  8
0
 10
240.874
 11
243.458
 20
-173.316
 21
-181.269
  0
LINE
  8
0
 10
243.458
 11
247.639
 20
-181.269
 21
-188.511
  0
LINE
  8
0
 10
247.639
 11
253.235
 20
-188.511
 21
-194.726
  0
LINE
  8
0
 10
253.235
 11
260
 20
-194.726
 21
-199.641
  0
LINE
  8
0
 10
260
 11
267.639
 20
-199.641
 21
-203.042
  0
LINE
  8
0
 10
267.639
 11
339.5
 20
-203.042
 21
-235
  0
LINE
  8
0
 10
339.5
 11
300
 20
-235
 21
-235
  0
LINE
  8
0
 10
300
 11
300
 20
-235
 21
-240
  0
LINE
  8
0
 10
300
 11
260
 20
-240
 21
-240
  0
LINE
  8
0
 10
260
 11
260
 20
-240
 21
-235
  0
LINE
  8
0
 10
260
 11
220
 20
-235
 21
-235
  0
ENDSEC
  0
SECTION
  2
OBJECTS
  0
DICTIONARY
  0
ENDSEC
  0
EOF
