  0
SECTION
  2
BLOCKS
  0
ENDSEC
  0
SECTION
  2
ENTITIES
  0
LINE
  8
0
 10
-200
 11
-200
 20
-60
 21
60
  0
LINE
  8
0
 10
-200
 11
200
 20
60
 21
60
  0
LINE
  8
0
 10
200
 11
200
 20
60
 21
-60
  0
LINE
  8
0
 10
200
 11
-200
 20
-60
 21
-60
  0
LINE
  8
0
 10
-193.802
 11
-193.802
 20
-50.868
 21
-49.132
  0
LINE
  8
0
 10
-193.802
 11
-192.445
 20
-49.132
 21
-48.05
  0
LINE
  8
0
 10
-192.445
 11
-190.753
 20
-48.05
 21
-48.436
  0
LINE
  8
0
 10
-190.753
 11
-190
 20
-48.436
 21
-50
  0
LINE
  8
0
 10
-190
 11
-190.753
 20
-50
 21
-51.564
  0
LINE
  8
0
 10
-190.753
 11
-192.445
 20
-51.564
 21
-51.95
  0
LINE
  8
0
 10
-192.445
 11
-193.802
 20
-51.95
 21
-50.868
  0
LINE
  8
0
 10
-193.802
 11
-193.802
 20
-0.868
 21
0.868
  0
LINE
  8
0
 10
-193.802
 11
-192.445
 20
0.868
 21
1.95
  0
LINE
  8
0
 10
-192.445
 11
-190.753
 20
1.95
 21
1.564
  0
LINE
  8
0
 10
-190.753
 11
-190
 20
1.564
 21
0
  0
LINE
  8
0
 10
-190
 11
-190.753
 20
0
 21
-1.564
  0
LINE
  8
0
 10
-190.753
 11
-192.445
 20
-1.564
 21
-1.95
  0
LINE
  8
0
 10
-192.445
 11
-193.802
 20
-1.95
 21
-0.868
  0
LINE
  8
0
 10
-193.802
 11
-193.802
 20
49.132
 21
50.868
  0
LINE
  8
0
 10
-193.802
 11
-192.445
 20
50.868
 21
51.95
  0
LINE
  8
0
 10
-192.445
 11
-190.753
 20
51.95
 21
51.564
  0
LINE
  8
0
 10
-190.753
 11
-190
 20
51.564
 21
50
  0
LINE
  8
0
 10
-190
 11
-190.753
 20
50
 21
48.436
  0
LINE
  8
0
 10
-190.753
 11
-192.445
 20
48.436
 21
48.05
  0
LINE
  8
0
 10
-192.445
 11
-193.802
 20
48.05
 21
49.132
  0
LINE
  8
0
 10
-153.884
 11
-153.884
 20
30.543
 21
32.457
  0
LINE
  8
0
 10
-153.884
 11
-152.994
 20
32.457
 21
34.152
  0
LINE
  8
0
 10
-152.994
 11
-151.418
 20
34.152
 21
35.24
  0
LINE
  8
0
 10
-151.418
 11
-149.518
 20
35.24
 21
35.471
  0
LINE
  8
0
 10
-149.518
 11
-147.728
 20
35.471
 21
34.792
  0
LINE
  8
0
 10
-147.728
 11
-146.458
 20
34.792
 21
33.359
  0
LINE
  8
0
 10
-146.458
 11
-146
 20
33.359
 21
31.5
  0
LINE
  8
0
 10
-146
 11
-146.458
 20
31.5
 21
29.641
  0
LINE
  8
0
 10
-146.458
 11
-147.728
 20
29.641
 21
28.208
  0
LINE
  8
0
 10
-147.728
 11
-149.518
 20
28.208
 21
27.529
  0
LINE
  8
0
 10
-149.518
 11
-151.418
 20
27.529
 21
27.76
  0
LINE
  8
0
 10
-151.418
 11
-152.994
 20
27.76
 21
28.848
  0
LINE
  8
0
 10
-152.994
 11
-153.884
 20
28.848
 21
30.543
  0
LINE
  8
0
 10
-103.884
 11
-103.884
 20
30.543
 21
32.457
  0
LINE
  8
0
 10
-103.884
 11
-102.994
 20
32.457
 21
34.152
  0
LINE
  8
0
 10
-102.994
 11
-101.418
 20
34.152
 21
35.24
  0
LINE
  8
0
 10
-101.418
 11
-99.518
 20
35.24
 21
35.471
  0
LINE
  8
0
 10
-99.518
 11
-97.728
 20
35.471
 21
34.792
  0
LINE
  8
0
 10
-97.728
 11
-96.458
 20
34.792
 21
33.359
  0
LINE
  8
0
 10
-96.458
 11
-96
 20
33.359
 21
31.5
  0
LINE
  8
0
 10
-96
 11
-96.458
 20
31.5
 21
29.641
  0
LINE
  8
0
 10
-96.458
 11
-97.728
 20
29.641
 21
28.208
  0
LINE
  8
0
 10
-97.728
 11
-99.518
 20
28.208
 21
27.529
  0
LINE
  8
0
 10
-99.518
 11
-101.418
 20
27.529
 21
27.76
  0
LINE
  8
0
 10
-101.418
 11
-102.994
 20
27.76
 21
28.848
  0
LINE
  8
0
 10
-102.994
 11
-103.884
 20
28.848
 21
30.543
  0
LINE
  8
0
 10
-15
 11
-14.672
 20
31.5
 21
34.619
  0
LINE
  8
0
 10
-14.672
 11
-13.703
 20
34.619
 21
37.601
  0
LINE
  8
0
 10
-13.703
 11
-12.135
 20
37.601
 21
40.317
  0
LINE
  8
0
 10
-12.135
 11
-10.037
 20
40.317
 21
42.647
  0
LINE
  8
0
 10
-10.037
 11
-7.5
 20
42.647
 21
44.49
  0
LINE
  8
0
 10
-7.5
 11
-4.635
 20
44.49
 21
45.766
  0
LINE
  8
0
 10
-4.635
 11
-1.568
 20
45.766
 21
46.418
  0
LINE
  8
0
 10
-1.568
 11
1.568
 20
46.418
 21
46.418
  0
LINE
  8
0
 10
1.568
 11
4.635
 20
46.418
 21
45.766
  0
LINE
  8
0
 10
4.635
 11
7.5
 20
45.766
 21
44.49
  0
LINE
  8
0
 10
7.5
 11
10.037
 20
44.49
 21
42.647
  0
LINE
  8
0
 10
10.037
 11
12.135
 20
42.647
 21
40.317
  0
LINE
  8
0
 10
12.135
 11
13.703
 20
40.317
 21
37.601
  0
LINE
  8
0
 10
13.703
 11
14.672
 20
37.601
 21
34.619
  0
LINE
  8
0
 10
14.672
 11
15
 20
34.619
 21
31.5
  0
LINE
  8
0
 10
15
 11
14.672
 20
31.5
 21
28.381
  0
LINE
  8
0
 10
14.672
 11
13.703
 20
28.381
 21
25.399
  0
LINE
  8
0
 10
13.703
 11
12.135
 20
25.399
 21
22.683
  0
LINE
  8
0
 10
12.135
 11
10.037
 20
22.683
 21
20.353
  0
LINE
  8
0
 10
10.037
 11
7.5
 20
20.353
 21
18.51
  0
LINE
  8
0
 10
7.5
 11
4.635
 20
18.51
 21
17.234
  0
LINE
  8
0
 10
4.635
 11
1.568
 20
17.234
 21
16.582
  0
LINE
  8
0
 10
1.568
 11
-1.568
 20
16.582
 21
16.582
  0
LINE
  8
0
 10
-1.568
 11
-4.635
 20
16.582
 21
17.234
  0
LINE
  8
0
 10
-4.635
 11
-7.5
 20
17.234
 21
18.51
  0
LINE
  8
0
 10
-7.5
 11
-10.037
 20
18.51
 21
20.353
  0
LINE
  8
0
 10
-10.037
 11
-12.135
 20
20.353
 21
22.683
  0
LINE
  8
0
 10
-12.135
 11
-13.703
 20
22.683
 21
25.399
  0
LINE
  8
0
 10
-13.703
 11
-14.672
 20
25.399
 21
28.381
  0
LINE
  8
0
 10
-14.672
 11
-15
 20
28.381
 21
31.5
  0
LINE
  8
0
 10
96.116
 11
96.116
 20
30.543
 21
32.457
  0
LINE
  8
0
 10
96.116
 11
97.006
 20
32.457
 21
34.152
  0
LINE
  8
0
 10
97.006
 11
98.582
 20
34.152
 21
35.24
  0
LINE
  8
0
 10
98.582
 11
100.482
 20
35.24
 21
35.471
  0
LINE
  8
0
 10
100.482
 11
102.272
 20
35.471
 21
34.792
  0
LINE
  8
0
 10
102.272
 11
103.542
 20
34.792
 21
33.359
  0
LINE
  8
0
 10
103.542
 11
104
 20
33.359
 21
31.5
  0
LINE
  8
0
 10
104
 11
103.542
 20
31.5
 21
29.641
  0
LINE
  8
0
 10
103.542
 11
102.272
 20
29.641
 21
28.208
  0
LINE
  8
0
 10
102.272
 11
100.482
 20
28.208
 21
27.529
  0
LINE
  8
0
 10
100.482
 11
98.582
 20
27.529
 21
27.76
  0
LINE
  8
0
 10
98.582
 11
97.006
 20
27.76
 21
28.848
  0
LINE
  8
0
 10
97.006
 11
96.116
 20
28.848
 21
30.543
  0
LINE
  8
0
 10
146.116
 11
146.116
 20
30.543
 21
32.457
  0
LINE
  8
0
 10
146.116
 11
147.006
 20
32.457
 21
34.152
  0
LINE
  8
0
 10
147.006
 11
148.582
 20
34.152
 21
35.24
  0
LINE
  8
0
 10
148.582
 11
150.482
 20
35.24
 21
35.471
  0
LINE
  8
0
 10
150.482
 11
152.272
 20
35.471
 21
34.792
  0
LINE
  8
0
 10
152.272
 11
153.542
 20
34.792
 21
33.359
  0
LINE
  8
0
 10
153.542
 11
154
 20
33.359
 21
31.5
  0
LINE
  8
0
 10
154
 11
153.542
 20
31.5
 21
29.641
  0
LINE
  8
0
 10
153.542
 11
152.272
 20
29.641
 21
28.208
  0
LINE
  8
0
 10
152.272
 11
150.482
 20
28.208
 21
27.529
  0
LINE
  8
0
 10
150.482
 11
148.582
 20
27.529
 21
27.76
  0
LINE
  8
0
 10
148.582
 11
147.006
 20
27.76
 21
28.848
  0
LINE
  8
0
 10
147.006
 11
146.116
 20
28.848
 21
30.543
  0
LINE
  8
0
 10
190.198
 11
190.198
 20
-50.868
 21
-49.132
  0
LINE
  8
0
 10
190.198
 11
191.555
 20
-49.132
 21
-48.05
  0
LINE
  8
0
 10
191.555
 11
193.247
 20
-48.05
 21
-48.436
  0
LINE
  8
0
 10
193.247
 11
194
 20
-48.436
 21
-50
  0
LINE
  8
0
 10
194
 11
193.247
 20
-50
 21
-51.564
  0
LINE
  8
0
 10
193.247
 11
191.555
 20
-51.564
 21
-51.95
  0
LINE
  8
0
 10
191.555
 11
190.198
 20
-51.95
 21
-50.868
  0
LINE
  8
0
 10
190.198
 11
190.198
 20
-0.868
 21
0.868
  0
LINE
  8
0
 10
190.198
 11
191.555
 20
0.868
 21
1.95
  0
LINE
  8
0
 10
191.555
 11
193.247
 20
1.95
 21
1.564
  0
LINE
  8
0
 10
193.247
 11
194
 20
1.564
 21
0
  0
LINE
  8
0
 10
194
 11
193.247
 20
0
 21
-1.564
  0
LINE
  8
0
 10
193.247
 11
191.555
 20
-1.564
 21
-1.95
  0
LINE
  8
0
 10
191.555
 11
190.198
 20
-1.95
 21
-0.868
  0
LINE
  8
0
 10
190.198
 11
190.198
 20
49.132
 21
50.868
  0
LINE
  8
0
 10
190.198
 11
191.555
 20
50.868
 21
51.95
  0
LINE
  8
0
 10
191.555
 11
193.247
 20
51.95
 21
51.564
  0
LINE
  8
0
 10
193.247
 11
194
 20
51.564
 21
50
  0
LINE
  8
0
 10
194
 11
193.247
 20
50
 21
48.436
  0
LINE
  8
0
 10
193.247
 11
191.555
 20
48.436
 21
48.05
  0
LINE
  8
0
 10
191.555
 11
190.198
 20
48.05
 21
49.132
  0
ENDSEC
  0
SECTION
  2
OBJECTS
  0
DICTIONARY
  0
ENDSEC
  0
EOF
